<svg width="35" height="35" viewBox="0 0 35 35" fill="none" xmlns="http://www.w3.org/2000/svg">
<path d="M30.3516 30.4453H13.9453C13.2895 30.4453 12.7578 29.9136 12.7578 29.2578V4.10156C12.7578 3.44573 13.2895 2.91406 13.9453 2.91406H26.6866L31.5391 7.2813V29.2578C31.5391 29.9136 31.0074 30.4453 30.3516 30.4453Z" stroke="#8F1F30" stroke-width="2"/>
<path d="M27.0703 1.91406V4.64844C27.0703 5.85655 28.0497 6.83594 29.2578 6.83594H32.5391L27.0703 1.91406Z" fill="#8F1F30"/>
<path d="M17.396 7H16.4793C15.8475 7 15.3335 7.51402 15.3335 8.14583V10.8958C15.3335 11.0224 15.4361 11.125 15.5627 11.125C15.6892 11.125 15.7918 11.0224 15.7918 10.8958V9.29167H16.9377C17.0642 9.29167 17.1668 9.18906 17.1668 9.0625C17.1668 8.93594 17.0642 8.83333 16.9377 8.83333H15.7918V8.14583C15.7918 7.76673 16.1002 7.45833 16.4793 7.45833H17.396C17.5226 7.45833 17.6252 7.35572 17.6252 7.22917C17.6252 7.10261 17.5226 7 17.396 7Z" fill="#8F1F30"/>
<path d="M19.2308 7C18.599 7 18.085 7.51402 18.085 8.14583V10.8958C18.085 11.0224 18.1876 11.125 18.3141 11.125C18.4407 11.125 18.5433 11.0224 18.5433 10.8958V9.29167H19.9183V10.8958C19.9183 11.0224 20.0209 11.125 20.1475 11.125C20.274 11.125 20.3766 11.0224 20.3766 10.8958V8.14583C20.3766 7.51402 19.8626 7 19.2308 7ZM18.5433 8.83333V8.14583C18.5433 7.76673 18.8517 7.45833 19.2308 7.45833C19.6099 7.45833 19.9183 7.76673 19.9183 8.14583V8.83333H18.5433Z" fill="#8F1F30"/>
<path d="M22.4378 7.45833H23.3545C23.481 7.45833 23.5837 7.35572 23.5837 7.22917C23.5837 7.10261 23.481 7 23.3545 7H22.4378C21.806 7 21.292 7.51402 21.292 8.14583V9.97917C21.292 10.611 21.806 11.125 22.4378 11.125H23.3545C23.481 11.125 23.5837 11.0224 23.5837 10.8958C23.5837 10.7693 23.481 10.6667 23.3545 10.6667H22.4378C22.0587 10.6667 21.7503 10.3583 21.7503 9.97917V8.14583C21.7503 7.76673 22.0587 7.45833 22.4378 7.45833Z" fill="#8F1F30"/>
<path d="M26.1055 7H24.2721C24.1456 7 24.043 7.10261 24.043 7.22917C24.043 7.35572 24.1456 7.45833 24.2721 7.45833H24.9596V10.8958C24.9596 11.0224 25.0622 11.125 25.1888 11.125C25.3154 11.125 25.418 11.0224 25.418 10.8958V7.45833H26.1055C26.232 7.45833 26.3346 7.35572 26.3346 7.22917C26.3346 7.10261 26.232 7 26.1055 7Z" fill="#8F1F30"/>
<path d="M28.8535 8.375C28.98 8.375 29.0826 8.27239 29.0826 8.14583V7.87731C29.0826 7.39354 28.6891 7 28.2053 7H27.6683C27.1846 7 26.791 7.39354 26.791 7.87731C26.791 8.11169 26.8823 8.33203 27.048 8.49766L28.5016 9.95132C28.5808 10.0305 28.6243 10.1357 28.6243 10.2476C28.6243 10.4786 28.4364 10.6666 28.2054 10.6666H27.6684C27.4374 10.6666 27.2494 10.4786 27.2494 10.2476V9.97917C27.2494 9.85261 27.1468 9.75 27.0202 9.75C26.8937 9.75 26.7911 9.85261 26.7911 9.97917V10.2477C26.7911 10.7315 27.1846 11.125 27.6684 11.125H28.2054C28.6891 11.125 29.0827 10.7315 29.0827 10.2477C29.0827 10.0133 28.9914 9.79297 28.8257 9.62734L27.3721 8.17368C27.2929 8.0945 27.2493 7.98931 27.2493 7.87736C27.2493 7.64636 27.4373 7.45839 27.6683 7.45839H28.2053C28.4363 7.45839 28.6243 7.64636 28.6243 7.87736V8.14583C28.6243 8.27239 28.7269 8.375 28.8535 8.375Z" fill="#8F1F30"/>
<path d="M29.2578 17.1875H17.7734C17.1693 17.1875 16.6797 16.6978 16.6797 16.0938C16.6797 15.4897 17.1693 15 17.7734 15H29.2578C29.8619 15 30.3516 15.4897 30.3516 16.0938C30.3516 16.6978 29.8619 17.1875 29.2578 17.1875Z" fill="#8F1F30"/>
<path d="M29.2578 21.5625H15.0391C14.435 21.5625 13.9453 21.0728 13.9453 20.4688C13.9453 19.8647 14.435 19.375 15.0391 19.375H29.2578C29.8619 19.375 30.3516 19.8647 30.3516 20.4688C30.3516 21.0728 29.8619 21.5625 29.2578 21.5625Z" fill="#8F1F30"/>
<path d="M26.5234 25.9375H15.0391C14.435 25.9375 13.9453 25.4478 13.9453 24.8438C13.9453 24.2397 14.435 23.75 15.0391 23.75H26.5234C27.1275 23.75 27.6172 24.2397 27.6172 24.8438C27.6172 25.4478 27.1275 25.9375 26.5234 25.9375Z" fill="#8F1F30"/>
<path d="M11.2109 33.0859C11.815 33.0859 12.3047 32.5962 12.3047 31.9922C12.3047 31.3881 11.815 30.8984 11.2109 30.8984C10.6069 30.8984 10.1172 31.3881 10.1172 31.9922C10.1172 32.5962 10.6069 33.0859 11.2109 33.0859Z" fill="#8F1F30"/>
<path d="M11.2109 30.8984V33.0859C11.815 33.0859 12.3047 32.5963 12.3047 31.9922C12.3047 31.3881 11.815 30.8984 11.2109 30.8984Z" fill="#8F1F30"/>
<path d="M16.7734 16.6797C16.7734 20.3558 13.7933 23.3359 10.1172 23.3359C6.44104 23.3359 3.46094 20.3558 3.46094 16.6797C3.46094 13.0035 6.44104 10.0234 10.1172 10.0234C13.7933 10.0234 16.7734 13.0035 16.7734 16.6797Z" stroke="#8F1F30" stroke-width="2"/>
<path d="M10.1172 22.1484C13.1375 22.1484 15.5859 19.7 15.5859 16.6797C15.5859 13.6594 13.1375 11.2109 10.1172 11.2109C7.09688 11.2109 4.64844 13.6594 4.64844 16.6797C4.64844 19.7 7.09688 22.1484 10.1172 22.1484Z" fill="#D7E6F0"/>
<path d="M10.1172 24.3359H12.3047V25.4297H10.1172V24.3359Z" fill="#8F1F30"/>
<path d="M10.1172 24.3359V24.8828H10.6641C10.9661 24.8828 11.2109 25.1277 11.2109 25.4297H12.3047V24.3359H10.1172Z" fill="#8F1F30"/>
<path d="M12.3047 31.9922H10.1172C9.81518 31.9922 9.57031 31.7473 9.57031 31.4453V25.9766C9.57031 25.6746 9.81518 25.4297 10.1172 25.4297H12.3047C12.6067 25.4297 12.8516 25.6746 12.8516 25.9766V31.4453C12.8516 31.7473 12.6067 31.9922 12.3047 31.9922Z" fill="#8F1F30"/>
<path d="M12.3047 31.9922H11.2109V25.4297H12.3047C12.6067 25.4297 12.8516 25.6746 12.8516 25.9766V31.4453C12.8516 31.7473 12.6067 31.9922 12.3047 31.9922Z" fill="#8F1F30"/>
<path d="M11.664 16.6797L13.0782 15.2655C13.5053 14.8384 13.5053 14.1459 13.0782 13.7188C12.651 13.2917 11.9585 13.2917 11.5314 13.7188L10.1172 15.1329L8.70309 13.7188C8.27598 13.2917 7.58343 13.2917 7.15632 13.7188C6.72914 14.1459 6.72914 14.8384 7.15632 15.2655L8.57047 16.6797L7.15632 18.0938C6.72914 18.5209 6.72914 19.2135 7.15632 19.6406C7.36994 19.8542 7.64981 19.9609 7.92974 19.9609C8.20967 19.9609 8.48953 19.8541 8.70309 19.6405L10.1172 18.2265L11.5314 19.6406C11.7449 19.8542 12.0248 19.9609 12.3047 19.9609C12.5847 19.9609 12.8645 19.8541 13.0781 19.6405C13.5053 19.2134 13.5053 18.5209 13.0781 18.0938L11.664 16.6797Z" fill="#8F1F30"/>
</svg>
