<svg width="161" height="383" viewBox="0 0 161 383" fill="none" xmlns="http://www.w3.org/2000/svg">
<path d="M0.93934 369.939C0.353553 370.525 0.353553 371.475 0.93934 372.061L10.4853 381.607C11.0711 382.192 12.0208 382.192 12.6066 381.607C13.1924 381.021 13.1924 380.071 12.6066 379.485L4.12132 371L12.6066 362.515C13.1924 361.929 13.1924 360.979 12.6066 360.393C12.0208 359.808 11.0711 359.808 10.4853 360.393L0.93934 369.939ZM152.384 6.07925C152.384 4.63398 153.524 3.5 154.942 3.5V0.5C151.852 0.5 149.384 2.99202 149.384 6.07925H152.384ZM154.942 3.5C156.361 3.5 157.5 4.63398 157.5 6.07925H160.5C160.5 2.99202 158.032 0.5 154.942 0.5V3.5ZM157.5 6.07925C157.5 7.52452 156.361 8.6585 154.942 8.6585V11.6585C158.032 11.6585 160.5 9.16648 160.5 6.07925H157.5ZM154.942 8.6585C153.524 8.6585 152.384 7.52452 152.384 6.07925H149.384C149.384 9.16648 151.852 11.6585 154.942 11.6585V8.6585ZM150.884 4.57925H98.4711V7.57925H150.884V4.57925ZM76.9711 26.0792V351H79.9711V26.0792H76.9711ZM58.4711 369.5H2V372.5H58.4711V369.5ZM76.9711 351C76.9711 361.217 68.6883 369.5 58.4711 369.5V372.5C70.3452 372.5 79.9711 362.874 79.9711 351H76.9711ZM98.4711 4.57925C86.5969 4.57925 76.9711 14.2051 76.9711 26.0792H79.9711C79.9711 15.862 88.2538 7.57925 98.4711 7.57925V4.57925Z" fill="#F8B825"/>
</svg>
