<svg width="35" height="35" fill="none" xmlns="http://www.w3.org/2000/svg"><path d="M30.352 30.445H13.945a1.188 1.188 0 0 1-1.187-1.187V4.102c0-.656.532-1.188 1.187-1.188h12.742l4.852 4.367v21.977c0 .656-.532 1.187-1.187 1.187Z" stroke="#8F1F30" stroke-width="2"/><path d="M27.07 1.914v2.734c0 1.209.98 2.188 2.188 2.188h3.281L27.07 1.914ZM17.396 7h-.917c-.631 0-1.145.514-1.145 1.146v2.75a.23.23 0 1 0 .458 0V9.292h1.146a.23.23 0 0 0 0-.459h-1.146v-.687c0-.38.308-.688.687-.688h.917a.23.23 0 1 0 0-.458Zm1.834 0c-.631 0-1.145.514-1.145 1.146v2.75a.23.23 0 1 0 .458 0V9.292h1.375v1.604a.23.23 0 1 0 .459 0v-2.75c0-.632-.514-1.146-1.146-1.146Zm-.687 1.833v-.687a.688.688 0 0 1 1.375 0v.687h-1.375Zm3.895-1.375h.917a.23.23 0 0 0 0-.458h-.917c-.632 0-1.146.514-1.146 1.146v1.833c0 .632.514 1.146 1.146 1.146h.917a.23.23 0 0 0 0-.458h-.917a.688.688 0 0 1-.688-.688V8.146c0-.38.309-.688.688-.688ZM26.105 7h-1.833a.23.23 0 0 0 0 .458h.688v3.438a.23.23 0 1 0 .458 0V7.458h.688a.23.23 0 0 0 0-.458Zm2.749 1.375a.23.23 0 0 0 .229-.23v-.268A.878.878 0 0 0 28.205 7h-.537a.878.878 0 0 0-.62 1.498l1.454 1.453a.42.42 0 0 1-.296.715h-.538a.42.42 0 0 1-.419-.418v-.269a.23.23 0 0 0-.458 0v.269c0 .484.394.877.877.877h.537a.878.878 0 0 0 .62-1.498l-1.453-1.453a.42.42 0 0 1 .296-.715h.537a.42.42 0 0 1 .42.418v.269c0 .126.102.229.229.229Zm.404 8.813H17.773a1.094 1.094 0 1 1 0-2.188h11.485a1.094 1.094 0 1 1 0 2.188Zm0 4.375H15.039a1.094 1.094 0 1 1 0-2.188h14.219a1.094 1.094 0 1 1 0 2.188Zm-2.735 4.375H15.04a1.094 1.094 0 1 1 0-2.188h11.484a1.094 1.094 0 1 1 0 2.188ZM11.21 33.086a1.094 1.094 0 1 0 .001-2.188 1.094 1.094 0 0 0 0 2.188Z" fill="#8F1F30"/><path d="M11.21 30.898v2.188a1.094 1.094 0 1 0 0-2.188Z" fill="#8F1F30"/><path d="M16.773 16.68a6.656 6.656 0 1 1-13.312 0 6.656 6.656 0 0 1 13.312 0Z" stroke="#8F1F30" stroke-width="2"/><path d="M10.117 22.148a5.469 5.469 0 1 0 0-10.937 5.469 5.469 0 0 0 0 10.937Z" fill="#D7E6F0"/><path d="M10.117 24.336h2.188v1.094h-2.188v-1.094Z" fill="#8F1F30"/><path d="M10.117 24.336v.547h.547c.302 0 .547.245.547.547h1.094v-1.094h-2.188Zm2.188 7.656h-2.188a.547.547 0 0 1-.547-.547v-5.468c0-.302.245-.547.547-.547h2.188c.302 0 .547.245.547.547v5.468a.547.547 0 0 1-.547.547Z" fill="#8F1F30"/><path d="M12.305 31.992H11.21V25.43h1.094c.302 0 .547.245.547.547v5.468a.547.547 0 0 1-.547.547Zm-.641-15.312 1.414-1.415a1.094 1.094 0 1 0-1.547-1.546l-1.414 1.414-1.414-1.414a1.094 1.094 0 0 0-1.547 1.546L8.57 16.68l-1.414 1.414a1.094 1.094 0 1 0 1.547 1.546l1.414-1.413 1.414 1.414a1.09 1.09 0 0 0 1.547 0 1.094 1.094 0 0 0 0-1.547l-1.414-1.414Z" fill="#8F1F30"/></svg>