<svg width="35" height="35" fill="none" xmlns="http://www.w3.org/2000/svg"><g clip-path="url(#a)" fill="#8F1F30"><path d="M22.012 0c-2.455 0-4.846.69-6.915 1.993a.684.684 0 1 0 .729 1.157 11.586 11.586 0 0 1 6.186-1.783c6.407 0 11.62 5.214 11.62 11.621 0 6.408-5.213 11.621-11.62 11.621-6.408 0-11.621-5.213-11.621-11.62 0-2.198.616-4.337 1.782-6.186a.684.684 0 1 0-1.157-.73 12.95 12.95 0 0 0-1.992 6.915c0 2.843.918 5.474 2.473 7.615l-1.17 1.169a2.054 2.054 0 0 0-2.333.4L.6 29.567c-.8.8-.8 2.1 0 2.9l1.934 1.934c.386.386.9.599 1.45.599.549 0 1.064-.213 1.45-.6l7.395-7.394c.386-.386.599-.901.599-1.45a2.05 2.05 0 0 0-.199-.884l1.169-1.169a12.917 12.917 0 0 0 7.615 2.473C29.174 25.976 35 20.15 35 12.988 35 5.827 29.173 0 22.011 0ZM11.86 26.04l-7.395 7.394a.678.678 0 0 1-.483.199.678.678 0 0 1-.484-.2L1.566 31.5a.684.684 0 0 1 0-.966l7.395-7.395a.681.681 0 0 1 .966 0l1.934 1.933c.128.128.198.3.198.484 0 .183-.07.355-.198.483Zm.483-2.418-.966-.966.984-.984c.305.338.627.661.966.966l-.984.984Z"/><path d="M30.106 18.142c.331.18.746.056.926-.275a10.27 10.27 0 0 0 1.233-4.879c0-5.654-4.6-10.254-10.253-10.254-5.654 0-10.254 4.6-10.254 10.254s4.6 10.254 10.254 10.254c1.703 0 3.39-.427 4.878-1.233a.684.684 0 1 0-.652-1.202 8.897 8.897 0 0 1-4.227 1.068c-4.9 0-8.886-3.987-8.886-8.887s3.986-8.886 8.886-8.886c4.9 0 8.887 3.986 8.887 8.886 0 1.476-.37 2.938-1.068 4.227a.684.684 0 0 0 .276.927ZM13.311 4.971a.684.684 0 1 0-.46-1.19.683.683 0 0 0 .46 1.19Z"/><path d="M28.779 20.439a.684.684 0 1 0-.438-1.209.683.683 0 0 0 .438 1.209Zm.391-7.055a.684.684 0 0 0 0-.79c-1.485-2.098-4.228-3.4-7.159-3.4-2.93 0-5.673 1.302-7.16 3.4a.683.683 0 0 0 0 .79c1.487 2.097 4.23 3.4 7.16 3.4 2.93 0 5.674-1.303 7.16-3.4Zm-4.73-.396a2.43 2.43 0 0 1-2.429 2.428 2.43 2.43 0 0 1-2.428-2.428 2.43 2.43 0 0 1 2.428-2.428 2.43 2.43 0 0 1 2.428 2.428Zm-8.165 0c.615-.72 1.426-1.305 2.356-1.72a3.77 3.77 0 0 0 0 3.441c-.93-.415-1.74-1-2.356-1.72Zm9.117 1.721a3.77 3.77 0 0 0 0-3.441c.93.415 1.74 1 2.355 1.72-.614.72-1.425 1.306-2.355 1.721Z"/><path d="M22.011 13.672a.683.683 0 1 0 .002-1.367.683.683 0 0 0-.002 1.367Z"/></g><defs><clipPath id="a"><path fill="#fff" d="M0 0h35v35H0z"/></clipPath></defs></svg>