<svg width="35" height="35" fill="none" xmlns="http://www.w3.org/2000/svg"><g clip-path="url(#a)" fill="#8F1F30"><path d="M25.927 14.167h.754c1.31 0 2.426-.84 2.84-2.01h4.453c1.361-.055 1.36-1.998 0-2.051h-4.47a3.017 3.017 0 0 0-2.823-1.964h-.555a8.556 8.556 0 0 0-1.65-4.605h9.498c1.361-.055 1.36-1.997 0-2.051H22.352A8.582 8.582 0 0 0 17.548 0l-.051.002L17.452 0a8.583 8.583 0 0 0-4.813 1.494 1.033 1.033 0 0 0-.12-.008H1.024c-1.36.054-1.36 1.997 0 2.05h9.5a8.557 8.557 0 0 0-1.651 4.606h-.555a3.017 3.017 0 0 0-2.824 1.964h-4.47c-1.36.054-1.36 1.997 0 2.05H5.48a3.017 3.017 0 0 0 2.84 2.01h.753a8.516 8.516 0 0 0 2.755 4.555l-10.802.004c-1.36.054-1.36 1.997 0 2.051h5.588a5.832 5.832 0 0 0-1.41 3.804v2.765H1.026c-1.36.054-1.36 1.997 0 2.05h4.179v4.58c0 .566.459 1.025 1.025 1.025h22.54c.567 0 1.026-.46 1.026-1.026v-4.578h4.178c1.361-.055 1.36-1.998 0-2.051h-4.178V24.58c0-1.45-.532-2.78-1.409-3.804h5.587c1.361-.054 1.36-1.997 0-2.05l-10.801-.005a8.517 8.517 0 0 0 2.754-4.554Zm1.715-3.013c0 .53-.431.962-.961.962h-.54v-1.923h.54c.53 0 .961.431.961.961ZM18.525 2.13a6.614 6.614 0 0 1 5.485 5.48h-2.575a2.911 2.911 0 0 1-2.91-2.906V2.13Zm-2.05 2.574a2.911 2.911 0 0 1-2.91 2.907H10.99a6.614 6.614 0 0 1 5.484-5.48v2.573Zm-9.117 6.45c0-.53.431-.961.961-.961h.54v1.923h-.54a.963.963 0 0 1-.961-.962Zm4.268 21.795v-6.53h11.748v6.53H11.626Zm16.12-8.369v8.369h-2.32v-7.556c0-.566-.46-1.025-1.026-1.025H10.6c-.566 0-1.025.459-1.025 1.025v7.556h-2.32V24.58a3.812 3.812 0 0 1 3.658-3.804h13.174a3.812 3.812 0 0 1 3.658 3.804Zm-10.662-5.859c-3.43-.15-6.174-2.986-6.174-6.45V9.66h2.655A4.955 4.955 0 0 0 17.5 7.719a4.955 4.955 0 0 0 3.935 1.944h2.655v2.609c0 3.464-2.744 6.3-6.174 6.45h-.832Z"/><path d="M20.111 28.658h-5.219c-1.36.054-1.359 1.997 0 2.05h5.219c1.36-.054 1.36-1.996 0-2.05Z"/></g><defs><clipPath id="a"><path fill="#fff" d="M0 0h35v35H0z"/></clipPath></defs></svg>