<svg width="35" height="35" fill="none" xmlns="http://www.w3.org/2000/svg"><path d="M15.313 9.297a.547.547 0 1 0 0-1.094.547.547 0 0 0 0 1.094Zm4.375 0a.547.547 0 1 0 0-1.094.547.547 0 0 0 0 1.094Zm-1.641 3.281h-2.188v1.094h2.188a2.19 2.19 0 0 0 2.187-2.188h-1.093c0 .604-.49 1.094-1.094 1.094Zm-1.094-4.375h1.094v2.188h-1.094V8.203ZM2.734 23.516h1.094v1.093H2.734v-1.093Zm2.188 0h3.281v1.093H4.922v-1.093Zm-2.188 2.187h5.47v1.094h-5.47v-1.094Zm0 2.187h5.47v1.094h-5.47v-1.093Zm25.544.708-.774.773 2.073 2.073 4.757-5.946-.855-.684-3.993 4.992-1.208-1.208Z" fill="#8F1F30"/><path d="M32.266 32.266h-5.47v-5.47h3.282v-1.093h-4.375v3.281h-5.469v-.547c0-.277-.042-.549-.122-.808 5.99-1.215 10.513-6.52 10.513-12.863 0-4.953-2.73-9.412-7.128-11.674A6.013 6.013 0 0 0 18.588.547h-1.972a4.861 4.861 0 0 0-3.948 2.017C7.703 4.532 4.375 9.413 4.375 14.766c0 2.324.605 4.573 1.757 6.562H1.64c-.604 0-1.094.49-1.094 1.094v9.844c0 .603.49 1.093 1.094 1.093h7.656c.603 0 1.094-.49 1.094-1.093v-2.188h4.375v2.735c0 .904.736 1.64 1.64 1.64h2.188c.904 0 1.64-.736 1.64-1.64v-2.735h5.47v3.281h7.655v-4.375h-1.093v3.282ZM19.14 28.438v.546h-3.282v-.547c0-.223.049-.44.134-.642.498.057.999.096 1.507.096.51 0 1.013-.033 1.509-.09.084.2.132.415.132.637Zm10.39-13.672c0 6.634-5.397 12.03-12.031 12.03a11.91 11.91 0 0 1-7.11-2.333v-1.402a10.882 10.882 0 0 0 7.11 2.642c6.03 0 10.938-4.906 10.938-10.937a10.9 10.9 0 0 0-3.834-8.312 6 6 0 0 0-.24-1.573 11.964 11.964 0 0 1 5.167 9.885Zm-16.953-3.282a1.095 1.095 0 0 1 0-2.187v2.187Zm-2.055-3.658.263 1.317a2.17 2.17 0 0 0-.395 1.248 2.19 2.19 0 0 0 2.187 2.187h.044a3.834 3.834 0 0 0 2.46 3.04l-.21.846a6.656 6.656 0 0 0-5.178 4.275 9.802 9.802 0 0 1 .83-12.913Zm11.899 1.47a1.095 1.095 0 0 1 0 2.188V9.297Zm-.044 3.282h.044a2.19 2.19 0 0 0 2.187-2.187 2.17 2.17 0 0 0-.396-1.249l.264-1.316a9.802 9.802 0 0 1 .83 12.913 6.657 6.657 0 0 0-5.178-4.275l-.211-.846a3.833 3.833 0 0 0 2.46-3.04Zm-5.972 3.281h2.188c.085 0 .17-.007.253-.012l.22.884-1.593 1.18-1.544-1.175.223-.89c.084.006.168.013.253.013Zm3.695 1.706-.275 1.373-1.24-.49 1.247-.923c.09.013.18.024.268.04Zm-2.479 2.67h-.305l-.29-.872.445-.18.442.175-.292.876Zm-1.249-1.788-1.2.486-.274-1.367c.087-.017.176-.027.264-.04l1.21.921Zm-2.527-.567.513 2.562 1.651-.668.344 1.03-.873 3.595a9.834 9.834 0 0 1-4.938-2.677 5.548 5.548 0 0 1 3.303-3.843Zm3.506 3.448h.24l.831 3.234a9.707 9.707 0 0 1-.923.047c-.315 0-.626-.018-.933-.047l.785-3.234Zm2.16 3.074-.926-3.6.347-1.041 1.709.676.511-2.558a5.55 5.55 0 0 1 3.304 3.844 9.833 9.833 0 0 1-4.946 2.679Zm1.816-12.37a2.737 2.737 0 0 1-2.734 2.734h-2.188a2.737 2.737 0 0 1-2.734-2.735V7.656c0-.904.736-1.64 1.64-1.64h.291a3.273 3.273 0 0 0 2.444 1.093h2.734c.302 0 .547.246.547.547v4.375ZM16.617 1.64h1.972a4.933 4.933 0 0 1 4.83 5.893l-.166.835a2.167 2.167 0 0 0-.831-.166v-.547c0-.904-.736-1.64-1.64-1.64h-2.735a2.19 2.19 0 0 1-2.188-2.188h-1.093c0 .392.069.768.195 1.116a2.739 2.739 0 0 0-2.383 2.712v.547c-.294 0-.574.06-.831.166l-.206-1.032a2.896 2.896 0 0 1 1.236-2.984l.246-.164.063-.159a3.785 3.785 0 0 1 3.53-2.39ZM5.469 14.766c0-4.12 2.153-7.932 5.538-10.12a3.974 3.974 0 0 0-.596 1.796 10.898 10.898 0 0 0-1.64 14.886H7.423a11.962 11.962 0 0 1-1.954-6.562Zm-3.828 17.5v-9.844h7.656v9.844H1.641Zm8.75-3.282v-3.183a12.94 12.94 0 0 0 4.5 1.822 2.734 2.734 0 0 0-.125.814v.547H10.39Zm8.75 3.828a.548.548 0 0 1-.547.547h-2.188a.548.548 0 0 1-.547-.547v-2.734h3.282v2.735Z" fill="#8F1F30"/><path d="M2.734 30.078h5.47v1.094h-5.47v-1.094Z" fill="#8F1F30"/></svg>