<svg width="7" height="12" fill="none" xmlns="http://www.w3.org/2000/svg"><path fill-rule="evenodd" clip-rule="evenodd" d="M6.477 5.907a.94.94 0 0 0-.87-1.292.94.94 0 0 1-.94-.94V2.77c0-.51.418-.461.933-.461a.933.933 0 0 0 .933-.934v-.22C6.533.517 6.017 0 5.38 0h-.712c-.743 0-1.455.292-1.98.811a2.754 2.754 0 0 0-.82 1.958v.913a.933.933 0 0 1-.934.933A.933.933 0 0 0 0 5.55v.44c0 .516.418.934.933.934.516 0 .934.418.934.933V10.6a1.4 1.4 0 1 0 2.8 0V7.76c0-.463.374-.837.836-.837.34 0 .647-.207.775-.523l.2-.493Z" fill="#BD011C"/></svg>