<svg width="161" height="383" fill="none" xmlns="http://www.w3.org/2000/svg"><path d="M.94 369.939a1.5 1.5 0 0 0 0 2.122l9.545 9.546a1.501 1.501 0 0 0 2.122-2.122L4.12 371l8.486-8.485a1.5 1.5 0 0 0-2.122-2.122L.94 369.939ZM152.383 6.079a2.552 2.552 0 0 1 2.558-2.579v-3a5.552 5.552 0 0 0-5.558 5.58h3Zm2.558-2.579a2.552 2.552 0 0 1 2.558 2.58h3A5.552 5.552 0 0 0 154.942.5v3Zm2.558 2.58a2.552 2.552 0 0 1-2.558 2.579v3a5.552 5.552 0 0 0 5.558-5.58h-3Zm-2.558 2.579a2.552 2.552 0 0 1-2.558-2.58h-3a5.552 5.552 0 0 0 5.558 5.58v-3Zm-4.058-4.08H98.471v3h52.413v-3Zm-73.913 21.5V351h3V26.08h-3ZM58.471 369.5H2v3h56.471v-3Zm18.5-18.5c0 10.217-8.283 18.5-18.5 18.5v3c11.874 0 21.5-9.626 21.5-21.5h-3Zm21.5-346.42c-11.874 0-21.5 9.625-21.5 21.5h3c0-10.218 8.283-18.5 18.5-18.5v-3Z" fill="#F8B825"/></svg>