<svg width="11" height="10" fill="none" xmlns="http://www.w3.org/2000/svg"><path d="M2.438 3.315H.159v6.672h2.279V3.315ZM2.055.202a1.439 1.439 0 0 0-1.24-.11c-.162.06-.308.15-.43.262a1.202 1.202 0 0 0-.288.391A1.103 1.103 0 0 0 .226 1.87c.146.197.353.35.595.44.242.089.507.112.763.065.256-.048.49-.162.674-.33.184-.168.31-.382.36-.614.05-.233.024-.474-.077-.692-.1-.219-.27-.406-.486-.537Zm4.039 3.113H3.9L3.892 10H6.17V6.699c0-.869.183-1.71 1.367-1.71 1.185 0 1.185 1 1.185 1.772v3.225H11v-3.66c0-1.798-.463-3.177-2.741-3.177a2.6 2.6 0 0 0-1.246.266c-.382.19-.699.47-.919.81v-.91Z" fill="#BD011C"/></svg>