<svg width="21" height="26" fill="none" xmlns="http://www.w3.org/2000/svg"><g clip-path="url(#a)"><g clip-path="url(#b)"><path fill-rule="evenodd" clip-rule="evenodd" d="M9.96.427C4.9.605.694 4.554.21 9.594a10.224 10.224 0 0 0 .203 3.238c.157.7.392 1.38.684 2.016 1.019 2.414 3.375 6.451 8.66 10.844.324.271.8.271 1.129 0 5.285-4.388 7.641-8.425 8.665-10.849a9.75 9.75 0 0 0 .684-2.016c.047-.204.068-.319.068-.319.12-.626.183-1.269.183-1.927C20.485 4.846 15.737.224 9.96.427Zm.36 15.21a4.935 4.935 0 1 1 0-9.872 4.935 4.935 0 1 1 0 9.872Z" fill="#8F1F30"/></g></g><defs><clipPath id="a"><path fill="#fff" d="M0 0h20.325v25.474H0z"/></clipPath><clipPath id="b"><path fill="#fff" d="M0 0h20.325v25.474H0z"/></clipPath></defs></svg>