<svg width="28" height="18" fill="none" xmlns="http://www.w3.org/2000/svg"><path d="M2.601 5.304c.343.196 1.376.776 3.1 1.742a783.68 783.68 0 0 1 3.96 2.23l.643.373c.327.192.6.347.816.465.216.118.479.25.786.397.307.146.597.257.87.33.272.073.524.11.755.11h.031c.232 0 .484-.037.756-.11.272-.073.562-.184.869-.33a18.024 18.024 0 0 0 1.602-.862c.328-.192.542-.316.643-.373l7.075-3.972a6.655 6.655 0 0 0 1.844-1.503c.494-.587.74-1.202.74-1.845 0-.538-.239-.999-.717-1.382-.48-.383-1.046-.574-1.7-.574H2.42C1.644 0 1.047.212.628.635.21 1.06.001 1.59.001 2.225c0 .513.277 1.069.831 1.668.555.599 1.144 1.07 1.77 1.411Z" fill="#8F1F30"/><path d="M25.579 6.611c-3.305 1.809-5.815 3.214-7.528 4.217a35.75 35.75 0 0 1-1.399.8c-.358.192-.834.387-1.428.587-.595.2-1.149.3-1.663.3h-.031c-.514 0-1.068-.1-1.663-.3-.594-.2-1.07-.395-1.428-.587a36.847 36.847 0 0 1-1.398-.8C7.68 10.02 5.175 8.615 1.527 6.61A7.792 7.792 0 0 1 0 5.548v9.704c0 .538.237.998.71 1.381.474.383 1.044.575 1.709.575h22.253c.665 0 1.235-.192 1.709-.575.473-.383.71-.843.71-1.381V5.548a8.12 8.12 0 0 1-1.512 1.063Z" fill="#8F1F30"/></svg>