<svg width="30" height="30" fill="none" xmlns="http://www.w3.org/2000/svg"><g clip-path="url(#a)" fill-rule="evenodd" clip-rule="evenodd" fill="#8F1F30"><path d="m27.579 26.13-7.414-7.414.948-.948a2.786 2.786 0 0 1 1.982-.821c.75 0 1.453.291 1.983.821l3.449 3.45c.53.529.821 1.233.821 1.982 0 .749-.292 1.453-.821 1.982l-.948.948ZM3.218 1.77l.948-.95A2.786 2.786 0 0 1 6.148 0c.75 0 1.454.292 1.983.821l3.45 3.45a2.807 2.807 0 0 1 0 3.965l-.949.948-7.414-7.415Zm23.055 25.603c-2.501 2.073-5.718 2.526-9.363 1.3-3.122-1.05-6.575-3.363-9.724-6.512-3.15-3.149-5.462-6.602-6.512-9.725-1.226-3.644-.773-6.86 1.3-9.363l7.45 7.45c-1.601 2.496.7 5.45 2.325 7.075 1.624 1.624 4.579 3.926 7.074 2.325l7.45 7.45Z"/></g><defs><clipPath id="a"><path fill="#fff" d="M0 0h29.348v29.347H0z"/></clipPath></defs></svg>