<svg width="11" height="9" fill="none" xmlns="http://www.w3.org/2000/svg"><path d="M11 1.004c-.404.185-.916.36-1.375.417C10.092 1.135 10.832.539 11 0c-.436.265-1.224.548-1.738.65C8.85.2 8.265 0 7.616 0 6.37 0 5.5 1.092 5.5 2.368v.948C3.667 3.316 1.88 1.872.767.474A2.338 2.338 0 0 0 .46 1.638c0 .861.766 1.736 1.372 2.151-.37-.011-1.07-.303-1.375-.473v.027c0 1.121.762 1.882 1.793 2.094-.188.054-.418.247-1.301.247.287.917 1.729 1.401 2.717 1.421-.773.62-2.15.948-3.209.948-.183 0-.282.01-.458-.011C.998 8.695 2.393 9 3.667 9c4.15 0 6.416-3.277 6.416-6.333 0-.1-.003-.437-.008-.535.444-.323.623-.662.925-1.128Z" fill="#BD011C"/></svg>